<!-- beyondBINARY quantum-prefixed | uvspeed | cryostat-vector -->
<!-- IBM Quantum hardware photography: Colors And The Kids (catk.de/work/ibm-quantum) | Vector trace: uvQbit project | Attribution required for production -->
<svg version="1.1" xmlns="http://www.w3.org/2000/svg" width="100%" viewBox="0 0 2048 2048">
<path fill="#5F606A" opacity="1.000000" stroke="none" 
	d="
M917.838379,1636.259033 
	C920.226990,1637.913574 923.145142,1635.798584 925.454956,1638.059692 
	C921.380432,1647.884399 921.369995,1658.465454 921.314270,1668.675903 
	C920.943909,1736.430420 921.124634,1804.187866 921.115967,1871.944336 
	C921.115540,1875.324097 921.868896,1878.266235 923.564026,1881.368774 
	C926.383606,1886.529541 925.279297,1892.371216 924.534302,1897.968750 
	C924.382935,1899.106323 923.552490,1900.166016 922.238342,1900.302856 
	C920.619873,1900.471191 919.949524,1899.235474 919.349060,1898.010132 
	C919.055786,1897.411499 919.454529,1898.147461 919.166138,1897.547729 
	C918.146973,1895.428345 919.071716,1891.761353 916.399475,1891.329102 
	C914.638000,1891.044312 912.374939,1893.473145 910.705750,1894.968628 
	C908.172363,1897.238403 904.907776,1897.972900 901.979492,1900.234131 
	C897.009583,1902.901367 891.938904,1902.376831 887.046326,1902.182007 
	C884.292053,1902.072266 882.479248,1899.573853 881.572388,1896.907471 
	C880.767151,1894.539673 880.164429,1892.064331 880.421875,1889.550537 
	C881.409790,1879.904419 880.900269,1870.234497 880.837280,1860.582275 
	C880.785339,1852.614380 883.146912,1844.806519 882.088440,1836.788696 
	C881.873779,1835.163330 882.523987,1833.443970 883.350281,1832.002563 
	C885.213074,1828.753052 885.293945,1825.202759 884.695862,1821.787598 
	C883.597046,1815.513428 883.408813,1809.298950 883.816223,1802.941284 
	C884.539673,1791.652588 883.265991,1780.338013 883.775208,1769.030151 
	C883.859436,1767.161011 883.257263,1765.403809 882.634399,1763.682373 
	C879.918884,1756.177368 880.155823,1748.621460 882.612549,1741.176392 
	C883.707764,1737.857300 884.070129,1734.729980 882.963196,1731.427612 
	C880.072021,1722.802124 880.107910,1714.099121 882.381287,1705.363037 
	C882.725403,1704.040405 882.945129,1702.783813 882.526611,1701.447388 
	C879.634094,1692.210083 880.875977,1683.159302 883.143311,1673.951416 
	C884.859619,1666.980957 884.281860,1659.705811 883.620972,1652.573364 
	C882.901001,1644.804199 886.071472,1640.838013 893.739685,1640.505249 
	C895.423950,1640.432007 897.099548,1640.560181 898.379395,1638.583374 
	C898.618286,1637.944702 898.706055,1637.689087 898.991272,1637.085938 
	C901.883240,1635.547241 901.031250,1631.418945 904.603271,1630.663086 
	C905.662964,1631.012817 906.109802,1631.568237 906.563293,1632.571411 
	C907.967529,1634.896240 909.469971,1636.528564 912.439758,1636.472290 
	C913.232544,1636.479370 913.684875,1636.461914 914.472900,1636.377441 
	C915.697876,1636.094360 916.586914,1635.868164 917.838379,1636.259033 
z"/>
<path fill="#A4B4D0" opacity="1.000000" stroke="none" 
	d="
M945.258301,1888.599365 
	C940.215820,1888.488037 942.447876,1884.178101 941.225464,1881.829590 
	C940.471802,1880.381714 940.809448,1878.365967 940.443420,1876.188232 
	C941.789551,1874.336182 941.482849,1872.435425 941.484009,1870.628296 
	C941.534546,1793.939697 941.459229,1717.250977 941.532166,1640.562378 
	C941.532593,1640.062988 941.576355,1639.565308 941.682983,1638.624756 
	C942.247864,1636.539429 943.487244,1635.862061 945.058533,1635.547974 
	C949.902588,1634.579590 958.824890,1638.240723 960.977966,1642.650269 
	C962.515991,1645.799927 964.549500,1647.206055 967.931946,1647.020508 
	C973.237732,1646.729370 975.837219,1651.099121 978.799866,1654.126587 
	C982.565613,1657.974487 986.836731,1660.942261 991.456116,1664.219727 
	C993.079468,1666.500977 993.542236,1668.907593 993.789062,1671.104492 
	C994.446228,1676.951782 999.006104,1679.626099 1002.621277,1683.130127 
	C1004.309998,1684.766724 1005.695801,1683.401855 1007.097046,1682.706909 
	C1016.899292,1677.845947 1018.829651,1678.933716 1019.421509,1689.716919 
	C1019.692261,1694.649780 1018.321228,1697.182617 1013.640564,1698.881348 
	C1010.868408,1699.887451 1010.027039,1701.458008 1010.480408,1704.134888 
	C1011.800903,1711.930542 1010.687622,1719.666504 1009.896729,1727.412231 
	C1009.489807,1731.397705 1006.939331,1734.369629 1004.915283,1737.996460 
	C1003.012573,1739.555298 1000.879639,1740.328857 999.906860,1742.845215 
	C999.481201,1743.246338 999.286743,1743.378174 998.755737,1743.607300 
	C997.000488,1744.088867 996.206970,1742.418091 994.757202,1742.564575 
	C994.305847,1744.860474 994.461243,1747.220825 993.508423,1749.734131 
	C992.067139,1751.239380 990.704590,1751.322876 989.005005,1750.172607 
	C989.352234,1745.383911 989.592468,1740.929932 986.292480,1736.760986 
	C985.963379,1734.198730 987.402283,1732.727783 988.482849,1731.054688 
	C990.775574,1727.504639 989.674622,1724.655029 985.617249,1723.474243 
	C983.506958,1722.860229 981.326782,1722.995239 979.165588,1723.086426 
	C977.408752,1723.160400 976.118286,1724.163696 976.253418,1725.863037 
	C976.830139,1733.113892 971.950928,1738.605835 970.172607,1745.094971 
	C969.593933,1747.206665 969.737915,1748.245850 971.270081,1749.767090 
	C975.904541,1754.368408 974.615234,1759.270630 968.381287,1761.531738 
	C960.720154,1764.310425 960.829651,1764.308716 960.971985,1772.185791 
	C961.146362,1781.840820 961.043762,1791.499390 961.007629,1801.156494 
	C960.985901,1806.982544 957.864258,1811.968262 956.548523,1817.451660 
	C955.916931,1820.083740 955.894409,1822.510498 956.112000,1825.225952 
	C957.089355,1837.422974 959.802979,1849.676514 956.266846,1861.869873 
	C955.265625,1865.322144 955.900757,1866.764160 959.673950,1867.722778 
	C963.691162,1868.743286 968.237671,1870.034180 968.989990,1875.795776 
	C968.823547,1876.464966 968.713928,1876.724976 968.324951,1877.313232 
	C966.786316,1878.547974 965.392517,1878.833618 963.445923,1878.505127 
	C958.875488,1877.859375 954.687805,1878.286865 950.156494,1877.860596 
	C946.503662,1877.560181 945.761719,1879.368286 946.193787,1882.178955 
	C946.518250,1884.289551 947.082214,1886.441895 945.258301,1888.599365 
z"/>
<path fill="#3B424C" opacity="1.000000" stroke="none" 
	d="
M913.400757,1903.978027 
	C913.404846,1901.312500 912.514221,1899.884888 909.675842,1899.954224 
	C907.101990,1900.017212 904.525146,1899.958496 901.492798,1899.960205 
	C901.082458,1898.961426 901.061035,1897.813477 902.134644,1897.368652 
	C907.434448,1895.172729 912.234741,1892.353027 915.479919,1887.404663 
	C916.186096,1886.327881 917.312622,1885.913696 918.541443,1886.309814 
	C919.925781,1886.756104 919.950867,1888.030029 919.958374,1889.204834 
	C919.980408,1892.629883 920.744080,1895.894897 922.209900,1899.055420 
	C921.960510,1892.722290 925.820557,1885.981445 919.923096,1880.235474 
	C918.644287,1878.989502 918.986023,1877.108887 918.986084,1875.455444 
	C918.988892,1805.700439 918.982544,1735.945312 919.028564,1666.190308 
	C919.033936,1657.998291 921.278870,1649.967041 921.018860,1641.739502 
	C920.922729,1638.699707 923.547119,1639.239258 925.546265,1638.363037 
	C932.161560,1638.235352 933.947144,1639.707031 933.958862,1645.683350 
	C934.031006,1682.450073 933.997314,1719.217163 934.021606,1755.984131 
	C934.052429,1802.730103 934.068054,1849.476318 934.208008,1896.222046 
	C934.221191,1900.619629 933.696899,1903.341919 928.245667,1903.565552 
	C923.455994,1903.761841 918.658264,1903.902710 913.400757,1903.978027 
z"/>
<path fill="#777C88" opacity="1.000000" stroke="none" 
	d="
M1168.026245,1847.394653 
	C1168.036743,1842.641968 1168.035889,1838.286621 1168.037354,1833.466553 
	C1168.023926,1832.556885 1168.015991,1832.111694 1168.024048,1831.332275 
	C1168.031494,1829.611206 1168.031494,1828.224121 1168.032959,1826.420776 
	C1168.785156,1816.592651 1168.124756,1807.182861 1167.980225,1797.388062 
	C1167.971680,1795.286011 1167.971680,1793.568359 1167.965820,1791.421265 
	C1168.405884,1783.086304 1167.615967,1775.181519 1167.898560,1767.281616 
	C1168.144043,1760.416138 1166.521362,1753.563721 1167.836914,1746.700684 
	C1168.164917,1744.989868 1167.083862,1743.497192 1167.032349,1741.419189 
	C1167.025269,1739.932007 1167.024780,1738.865723 1167.025269,1737.399780 
	C1167.149414,1723.618652 1167.003418,1710.237427 1166.995850,1696.428101 
	C1166.995972,1695.250000 1166.998047,1694.500000 1167.000000,1693.375000 
	C1166.591919,1684.905029 1167.968994,1676.837891 1167.211548,1668.355957 
	C1167.355835,1663.284424 1167.667969,1658.596802 1167.975830,1653.463135 
	C1165.862427,1648.383179 1167.810425,1643.329956 1166.236816,1638.316040 
	C1165.221191,1637.701538 1164.452393,1637.386108 1163.374512,1637.026367 
	C1161.595459,1635.262695 1161.902222,1633.182861 1162.051636,1630.778076 
	C1162.528198,1629.919922 1162.945312,1629.591309 1163.862061,1629.389160 
	C1164.732544,1629.460449 1165.231323,1629.614502 1165.549805,1629.995117 
	C1169.072144,1634.205200 1169.164062,1634.191284 1171.251953,1628.582031 
	C1170.236328,1625.363281 1169.757690,1622.215698 1166.890381,1619.877441 
	C1165.370605,1616.936401 1161.059937,1615.729004 1163.140625,1611.319824 
	C1166.390625,1609.642090 1169.211060,1609.369751 1171.812134,1612.300781 
	C1170.230225,1612.882324 1168.595093,1613.015137 1165.604248,1613.258057 
	C1170.856567,1615.394897 1174.080322,1618.567139 1177.778687,1621.065796 
	C1182.125854,1624.003052 1184.592651,1627.737671 1184.208618,1633.119873 
	C1184.154663,1633.876465 1185.420532,1634.702026 1183.572998,1635.198364 
	C1178.707886,1636.505615 1183.555054,1637.299438 1183.962158,1638.661499 
	C1184.231934,1639.728638 1184.379395,1640.490479 1184.128418,1641.644653 
	C1183.358154,1646.869629 1181.201660,1651.651855 1183.521362,1657.008301 
	C1184.270020,1660.730713 1183.936768,1664.095093 1183.838135,1667.860596 
	C1183.072266,1670.009888 1182.353760,1671.749146 1183.524536,1673.999023 
	C1184.106323,1677.432983 1184.758057,1680.468628 1184.339478,1684.007202 
	C1182.905884,1692.831055 1183.351929,1701.253662 1184.073486,1710.098999 
	C1184.336548,1711.092041 1184.401367,1711.671875 1184.342773,1712.690796 
	C1184.123047,1713.761475 1183.807739,1714.388306 1183.793457,1715.037109 
	C1183.522705,1727.347046 1182.845703,1739.660400 1184.139893,1752.378906 
	C1184.377808,1753.373535 1184.412109,1753.955933 1184.296509,1754.979492 
	C1182.980103,1760.075562 1183.549316,1764.806274 1183.753662,1769.967896 
	C1183.793701,1781.335938 1185.274658,1792.230347 1184.219238,1803.602539 
	C1181.745361,1805.876465 1181.432983,1808.336182 1181.454224,1811.135986 
	C1181.556030,1824.596802 1181.550049,1838.059082 1181.481689,1851.520386 
	C1181.439575,1859.809448 1181.119873,1868.078857 1180.270996,1876.348145 
	C1179.862183,1880.332275 1179.714111,1884.573486 1181.979980,1888.729004 
	C1182.901123,1889.736694 1183.189819,1890.567993 1183.355713,1891.897705 
	C1183.021851,1894.002808 1182.769287,1895.678833 1183.013428,1897.828735 
	C1179.917358,1902.386230 1176.145020,1902.937012 1169.771973,1899.829590 
	C1167.230835,1896.288452 1169.497314,1893.061035 1169.636597,1889.880249 
	C1169.990234,1881.797485 1167.959839,1873.855957 1168.800903,1865.391846 
	C1168.967407,1864.244263 1168.961060,1863.499512 1168.946167,1862.382568 
	C1168.371582,1857.287598 1168.136963,1852.543457 1168.026245,1847.394653 
z"/>
<path fill="#3B424C" opacity="1.000000" stroke="none" 
	d="
M1125.985596,1879.673340 
	C1125.895874,1881.043091 1125.888306,1882.069336 1125.888428,1883.480469 
	C1124.142944,1887.278564 1125.344482,1890.941162 1125.009644,1894.474609 
	C1124.826294,1896.410278 1125.327637,1898.405029 1124.244873,1900.639648 
	C1122.110596,1901.182007 1120.049805,1900.535400 1118.333984,1902.520508 
	C1117.584839,1902.713257 1117.016479,1902.609253 1116.214233,1902.325073 
	C1114.653809,1900.384033 1115.014404,1898.322632 1115.014038,1896.354980 
	C1114.997559,1812.772949 1114.999756,1729.191040 1114.997803,1645.609009 
	C1114.997803,1643.108887 1114.726807,1640.538208 1117.562256,1638.513428 
	C1119.634155,1638.088745 1121.340332,1638.000122 1123.472412,1637.903564 
	C1126.474487,1639.123047 1127.069580,1641.179565 1127.072876,1643.948608 
	C1127.080322,1650.402832 1126.479980,1656.877686 1127.636108,1663.654785 
	C1127.860596,1666.314331 1127.856201,1668.636230 1127.856201,1671.390869 
	C1126.140625,1675.178955 1127.383545,1678.781250 1126.986816,1682.626099 
	C1127.244141,1685.342651 1127.506958,1687.680298 1127.794800,1690.401367 
	C1126.087402,1695.508179 1127.452881,1700.414673 1126.943481,1705.616455 
	C1126.916992,1706.761353 1126.914795,1707.501709 1126.917114,1708.612549 
	C1126.922119,1711.387817 1127.089844,1713.760254 1128.347168,1716.344238 
	C1128.647705,1720.810791 1128.520996,1724.847900 1127.729980,1729.303223 
	C1127.320557,1739.821533 1127.536133,1749.893066 1127.576172,1760.439453 
	C1127.488525,1766.345337 1127.457275,1771.775879 1127.524170,1777.691284 
	C1127.659180,1808.803101 1126.676880,1839.423950 1126.930664,1870.540283 
	C1126.900879,1872.402466 1126.904175,1873.776733 1126.909912,1875.563477 
	C1127.107910,1877.213989 1126.638062,1878.284546 1125.985596,1879.673340 
z"/>
<path fill="#777C88" opacity="1.000000" stroke="none" 
	d="
M867.771240,1637.523193 
	C870.024902,1641.205933 870.793762,1645.113647 871.534241,1649.030151 
	C871.595886,1649.355957 871.859558,1649.801025 871.732422,1649.982300 
	C867.419128,1656.129395 872.261047,1662.563843 871.111328,1668.871216 
	C869.922607,1675.392822 870.989075,1682.041138 871.000183,1688.634399 
	C871.053955,1720.576538 871.080505,1752.518799 870.976746,1784.460693 
	C870.956177,1790.802002 871.666870,1797.031860 872.648926,1803.252808 
	C872.895508,1804.814819 873.012085,1806.245728 871.986877,1807.508545 
	C869.797058,1810.205811 869.918945,1813.387573 870.040100,1816.552734 
	C870.470459,1827.794189 869.779175,1838.998291 869.412659,1850.220703 
	C869.246033,1855.323486 868.386047,1860.682861 869.705750,1865.911621 
	C870.499695,1869.057373 867.963928,1871.692749 867.848633,1874.984253 
	C867.560730,1883.207886 869.228760,1891.161987 870.036133,1899.670288 
	C868.404907,1901.890381 866.473816,1901.857178 863.993408,1900.761719 
	C861.509216,1898.094360 860.868469,1895.299438 860.872192,1892.178955 
	C860.887390,1879.374878 860.850220,1866.570801 860.897705,1853.766602 
	C860.910156,1850.409790 861.888611,1847.202759 862.255737,1843.415039 
	C860.292114,1832.097900 864.350281,1821.132690 861.622986,1810.304199 
	C861.383240,1809.352417 861.436401,1808.262939 861.800293,1807.338501 
	C862.752258,1804.920654 862.466125,1802.414307 862.493408,1799.932129 
	C863.056030,1748.681274 860.741211,1697.448730 861.521912,1646.196899 
	C861.559448,1643.738037 861.011719,1641.180664 862.707764,1638.507324 
	C863.041016,1638.151001 863.431946,1638.020874 863.630676,1637.966553 
	C864.318604,1637.637085 864.849243,1637.505005 865.669861,1637.382690 
	C866.429382,1637.342896 866.923035,1637.376465 867.771240,1637.523193 
z"/>
<path fill="#3B424C" opacity="1.000000" stroke="none" 
	d="
M1191.369507,1902.598511 
	C1190.650146,1902.842529 1190.166138,1902.888184 1189.317139,1902.916870 
	C1185.592773,1901.611694 1184.374512,1899.358398 1184.394165,1895.600342 
	C1184.564819,1862.971191 1184.510742,1830.340942 1184.497314,1797.710938 
	C1184.492065,1784.759399 1183.417969,1771.770020 1184.647705,1758.870117 
	C1185.417480,1750.794800 1185.506836,1742.610596 1185.077148,1734.729736 
	C1184.061035,1716.093018 1185.170654,1697.480591 1184.361572,1678.876709 
	C1183.819824,1666.422607 1184.336548,1653.968628 1184.652344,1641.517090 
	C1184.669434,1640.844238 1184.975220,1640.232422 1185.662354,1639.291260 
	C1185.960815,1638.905029 1186.003296,1638.953613 1185.972412,1638.962646 
	C1187.863281,1638.038086 1189.667725,1638.447144 1191.747681,1639.702759 
	C1192.075195,1639.954834 1192.013306,1640.005615 1192.035400,1639.972656 
	C1193.360107,1641.711060 1192.984131,1643.771118 1192.984619,1645.735596 
	C1193.002563,1729.255005 1193.001831,1812.774414 1192.990356,1896.293823 
	C1192.990112,1897.947144 1193.182739,1899.628906 1192.299561,1901.658447 
	C1192.038208,1902.083618 1192.006958,1902.022217 1192.039551,1902.010986 
	C1191.916260,1902.133301 1191.760498,1902.266724 1191.369507,1902.598511 
z"/>
<path fill="#5F606A" opacity="1.000000" stroke="none" 
	d="
M862.613159,1638.086914 
	C863.043823,1662.275391 862.592407,1686.410522 863.164978,1710.521484 
	C863.871643,1740.280273 864.237427,1770.040283 863.733276,1799.789185 
	C863.545715,1810.853760 865.102722,1821.955811 863.198914,1833.027588 
	C862.681763,1836.035156 863.501831,1839.272949 863.601440,1842.839111 
	C860.142700,1844.179688 859.427307,1841.840576 859.066650,1839.447876 
	C858.669678,1836.813965 858.857727,1834.125000 858.857544,1831.459229 
	C858.853271,1772.132324 858.856018,1712.805298 858.850891,1653.478394 
	C858.850708,1651.146729 858.925903,1648.812988 858.743835,1646.350586 
	C857.750854,1647.399902 858.173218,1648.609131 858.172791,1649.674927 
	C858.140930,1730.166260 858.154602,1810.657715 858.108459,1891.149048 
	C858.106323,1894.950562 858.501465,1898.160278 863.193787,1899.566040 
	C865.381592,1899.967163 867.242493,1900.018677 869.570068,1900.090088 
	C872.532227,1901.642822 875.183899,1901.137329 877.764954,1900.545654 
	C880.781982,1899.854004 882.722656,1901.221680 884.175415,1903.719727 
	C883.567688,1903.970459 883.104187,1904.008423 882.297485,1903.976807 
	C881.237366,1903.326050 880.402893,1903.532837 879.330688,1903.712891 
	C871.427917,1905.041504 863.926514,1902.866577 856.318787,1902.905518 
	C853.168762,1902.921631 854.011292,1899.898193 854.004028,1897.953125 
	C853.953552,1884.471680 853.988647,1870.989990 853.990845,1857.508301 
	C854.002502,1786.959839 854.011475,1716.411377 854.025085,1645.862915 
	C854.026611,1638.085693 854.037842,1638.085693 862.613159,1638.086914 
z"/>
<path fill="#C2C6DA" opacity="1.000000" stroke="none" 
	d="
M1055.326904,1918.632446 
	C1030.229492,1918.771362 1005.454956,1918.811646 980.680359,1918.848877 
	C976.534180,1918.855103 972.388000,1918.848145 968.055786,1918.438232 
	C967.425964,1916.350220 965.524780,1915.294800 965.861389,1912.930908 
	C966.123474,1911.314331 966.596191,1910.139893 967.430603,1908.697021 
	C970.913696,1906.195312 974.394714,1907.536499 978.140625,1907.786011 
	C981.911499,1911.218018 985.654785,1911.529175 990.044067,1909.005615 
	C990.904114,1908.755005 991.419861,1908.708496 992.345276,1908.795654 
	C1007.212708,1907.257568 1021.740601,1906.822144 1036.274170,1906.509155 
	C1042.852417,1906.367432 1049.407593,1908.619385 1056.013306,1906.708740 
	C1056.458252,1906.579956 1057.053711,1906.698486 1057.472778,1906.937866 
	C1063.872803,1910.595215 1070.998047,1909.695435 1078.310791,1910.362915 
	C1079.819580,1910.953613 1080.914795,1911.399414 1082.052246,1912.586792 
	C1082.070801,1917.650391 1078.431641,1917.695190 1075.184937,1917.951904 
	C1070.414551,1918.329224 1065.588013,1917.507690 1060.418457,1918.647217 
	C1059.243774,1918.791870 1058.485474,1918.817139 1057.355469,1918.759521 
	C1056.546875,1918.555786 1056.101685,1918.511597 1055.326904,1918.632446 
z"/>
<path fill="#9E9DAD" opacity="1.000000" stroke="none" 
	d="
M1103.421509,1615.509766 
	C1103.931641,1613.885742 1104.443359,1612.859131 1105.949951,1613.266724 
	C1107.444946,1613.671265 1107.879028,1614.879761 1107.998657,1616.645996 
	C1107.960205,1685.040161 1107.894287,1753.062988 1107.743652,1821.548462 
	C1107.343994,1824.106445 1107.543579,1826.212646 1107.594360,1828.658447 
	C1107.699097,1836.027832 1107.736572,1843.052979 1107.716553,1850.544312 
	C1107.354736,1852.783203 1107.535889,1854.567627 1107.595459,1856.675171 
	C1108.317261,1866.792725 1107.962402,1876.495117 1106.067017,1886.179077 
	C1105.194336,1890.638306 1100.999146,1890.020508 1099.390625,1889.663330 
	C1095.965088,1888.902710 1092.676392,1890.873413 1089.401978,1889.359863 
	C1087.953003,1888.690063 1087.860229,1890.157715 1087.934814,1891.068848 
	C1088.260498,1895.050049 1087.080933,1898.865356 1086.408691,1902.997192 
	C1084.636108,1902.508057 1084.494507,1901.197876 1084.510132,1899.835449 
	C1084.570312,1894.591675 1084.322021,1889.343628 1084.664551,1884.103271 
	C1084.306885,1888.731445 1084.765625,1893.382812 1084.416748,1897.997681 
	C1084.232666,1900.433228 1083.483521,1903.036621 1080.144165,1899.759644 
	C1080.224121,1897.510132 1080.678223,1895.657593 1080.500732,1893.342773 
	C1080.498413,1890.751465 1080.513428,1888.570190 1080.478027,1885.984497 
	C1080.242554,1882.903564 1079.282837,1880.352417 1079.150146,1877.257324 
	C1079.262817,1876.589600 1079.346313,1876.330322 1079.660889,1875.735229 
	C1080.619263,1874.692261 1081.477417,1874.113892 1082.453857,1873.958130 
	C1086.691895,1873.281372 1089.264160,1871.314697 1089.442993,1866.589600 
	C1089.524048,1864.446777 1090.839478,1862.260864 1093.480347,1862.340088 
	C1096.910645,1862.443115 1099.006226,1864.681396 1099.591431,1867.860596 
	C1100.153320,1870.913452 1100.869751,1873.650391 1103.979614,1875.660645 
	C1104.579102,1876.804932 1104.404297,1877.654297 1104.570435,1878.463379 
	C1103.599365,1867.248535 1104.150879,1856.048828 1104.326660,1844.816284 
	C1104.826782,1812.871948 1104.508789,1780.914673 1104.500488,1748.962524 
	C1104.490234,1709.224243 1104.518066,1669.485962 1104.492676,1629.747681 
	C1104.490967,1626.934082 1104.793335,1624.069092 1103.307617,1620.980469 
	C1102.740723,1619.009399 1103.023682,1617.474731 1103.421509,1615.509766 
z"/>
<path fill="#5F606A" opacity="1.000000" stroke="none" 
	d="
M1185.653320,1638.825195 
	C1185.964478,1667.389404 1185.700317,1695.877930 1186.142700,1724.355469 
	C1186.267700,1732.410034 1186.924683,1740.607544 1186.569336,1748.562256 
	C1186.041382,1760.377930 1186.075195,1772.173096 1186.025757,1783.970459 
	C1185.871338,1820.895752 1185.977295,1857.822144 1185.863892,1894.747681 
	C1185.854492,1897.792114 1186.463623,1900.247803 1188.881470,1902.546265 
	C1185.346436,1904.674683 1181.508545,1903.622559 1177.312866,1903.799316 
	C1173.787354,1903.138916 1170.677612,1903.716553 1167.203735,1903.284180 
	C1166.241089,1902.373291 1166.169312,1901.563232 1166.760620,1900.348877 
	C1167.004883,1899.995117 1167.000000,1900.000000 1166.997559,1900.002441 
	C1167.631226,1899.328125 1168.315918,1898.751587 1169.673096,1898.920898 
	C1174.062256,1899.581421 1178.310303,1902.076050 1181.932739,1897.373657 
	C1181.996094,1895.886475 1182.007324,1894.775146 1181.970093,1893.330811 
	C1181.958008,1892.257568 1181.957886,1891.517456 1181.956543,1890.407227 
	C1179.303589,1886.137695 1180.022217,1881.540894 1180.316162,1877.461426 
	C1180.974121,1868.330566 1181.489502,1859.214600 1181.497192,1850.065186 
	C1181.508301,1836.901489 1181.485352,1823.737793 1181.515747,1810.574097 
	C1181.520264,1808.606079 1181.114136,1806.547974 1182.651611,1804.349854 
	C1183.707031,1792.927734 1181.623413,1781.978271 1182.053955,1770.495728 
	C1183.994873,1765.393677 1182.563843,1760.536987 1182.978149,1755.399902 
	C1182.967041,1754.554932 1182.965698,1754.111328 1182.963867,1753.334961 
	C1183.108643,1739.966553 1182.787720,1726.930542 1182.982666,1713.446777 
	C1182.973511,1712.555054 1182.972290,1712.111084 1182.971802,1711.334473 
	C1183.027832,1702.300537 1182.997314,1693.599365 1182.979004,1684.448486 
	C1182.652710,1680.945801 1182.336426,1677.893066 1182.021973,1674.418457 
	C1181.988525,1672.539429 1182.003784,1671.081909 1182.000000,1669.312256 
	C1181.986694,1665.306885 1181.973511,1661.613770 1181.956177,1657.459961 
	C1182.725830,1651.963745 1182.747925,1646.876221 1183.004395,1641.402344 
	C1183.215454,1640.448730 1183.424561,1639.897339 1183.865967,1639.156006 
	C1184.514160,1638.892456 1184.930054,1638.818970 1185.653320,1638.825195 
z"/>
<path fill="#5F606A" opacity="1.000000" stroke="none" 
	d="
M1117.529541,1638.041138 
	C1116.684570,1640.719238 1115.918091,1643.272461 1115.921021,1646.234131 
	C1116.006226,1731.218018 1115.999023,1816.201904 1115.993652,1901.665405 
	C1112.839111,1901.865479 1114.169922,1899.417969 1114.157837,1897.934204 
	C1114.048706,1884.605103 1114.085083,1871.274780 1114.133789,1857.480103 
	C1114.769043,1855.553955 1114.435913,1854.041504 1114.285522,1852.263306 
	C1114.116211,1783.078247 1114.082886,1714.177734 1114.150146,1645.277344 
	C1114.152710,1642.614014 1111.972656,1638.650269 1117.529541,1638.041138 
z"/>
<path fill="#5F606A" opacity="1.000000" stroke="none" 
	d="
M1192.470459,1902.060547 
	C1192.038818,1815.016968 1192.039307,1727.950317 1192.048828,1640.411621 
	C1194.927246,1640.373657 1193.956665,1642.657715 1193.957642,1644.245361 
	C1193.993774,1700.206177 1193.974365,1756.166992 1193.965942,1812.127808 
	C1193.961670,1840.441406 1193.986816,1868.755005 1193.901855,1897.068359 
	C1193.896973,1898.700806 1194.977539,1900.748291 1192.470459,1902.060547 
z"/>
<path fill="#777C88" opacity="1.000000" stroke="none" 
	d="
M940.168396,1627.393799 
	C941.962280,1629.180664 940.457092,1631.933105 941.621948,1634.600220 
	C943.040833,1636.365112 942.468994,1638.100830 942.469666,1639.702759 
	C942.501648,1713.548218 942.509521,1787.393799 942.427185,1861.239136 
	C942.425171,1863.028564 943.951660,1865.813110 940.003052,1866.302856 
	C940.535889,1855.213989 939.904724,1844.272095 939.925720,1833.344116 
	C940.047119,1770.335327 940.057800,1707.326294 940.103333,1644.317261 
	C940.107300,1638.831299 940.091797,1633.345215 940.168396,1627.393799 
z"/>
<path fill="#878CA1" opacity="1.000000" stroke="none" 
	d="
M967.240112,1912.390381 
	C966.770020,1914.525024 967.424377,1915.911133 968.981506,1916.901489 
	C969.267029,1917.083130 970.116943,1917.154663 969.370667,1917.771973 
	C969.154724,1917.950562 968.733276,1917.880737 968.137939,1917.977051 
	C962.057312,1916.297363 961.323181,1911.454346 960.948547,1906.506470 
	C960.519592,1900.841064 960.278931,1895.161499 959.565796,1889.312256 
	C958.564636,1889.011353 957.989441,1889.058838 957.268799,1889.684082 
	C954.087646,1890.046265 951.121521,1889.144775 948.029785,1889.659180 
	C946.101746,1884.979248 944.768372,1880.616699 949.085327,1876.327148 
	C953.788208,1877.008545 958.213623,1875.374756 962.729004,1877.196777 
	C965.462463,1879.238281 964.926514,1881.880371 965.075562,1884.312134 
	C965.449097,1890.406250 964.219055,1896.594849 966.226624,1902.994995 
	C965.494019,1906.443970 967.462219,1909.131714 967.240112,1912.390381 
z"/>
<path fill="#3B424C" opacity="1.000000" stroke="none" 
	d="
M939.303040,1866.370361 
	C943.175110,1865.140991 941.846863,1862.097778 941.852234,1859.896851 
	C941.959290,1815.649292 941.968384,1771.401611 941.990356,1727.153931 
	C942.005493,1696.713501 942.010254,1666.272949 941.932495,1635.363892 
	C941.845337,1628.117554 941.845337,1621.339844 941.845337,1614.562012 
	C942.272400,1614.552368 942.699402,1614.542725 943.126465,1614.533203 
	C943.126465,1621.710815 943.126465,1628.888428 943.194336,1636.530273 
	C943.188538,1673.260864 943.088379,1709.527100 943.048279,1745.793335 
	C943.002136,1787.552979 943.030701,1829.312744 942.909851,1871.072021 
	C942.905273,1872.645142 944.540527,1875.311157 940.698242,1875.807129 
	C939.844238,1872.717285 939.458679,1869.663086 939.303040,1866.370361 
z"/>
<path fill="#5F606A" opacity="1.000000" stroke="none" 
	d="
M1080.648926,1898.953613 
	C1082.822632,1901.944092 1082.924438,1899.826660 1082.959106,1898.300415 
	C1083.078857,1893.011475 1083.091675,1887.720337 1083.163452,1882.430298 
	C1083.179077,1881.274170 1083.231934,1880.115723 1083.339111,1878.964966 
	C1083.417114,1878.128052 1083.657593,1877.246338 1084.704712,1877.247192 
	C1085.780640,1877.248047 1086.004639,1878.159424 1086.006836,1878.989868 
	C1086.016968,1882.781982 1085.959839,1886.574219 1085.941406,1890.366333 
	C1085.922241,1894.333252 1085.919556,1898.300171 1085.983643,1902.744995 
	C1088.634644,1906.439819 1086.062012,1909.479858 1085.425293,1912.822266 
	C1084.312134,1913.883179 1083.542847,1914.885498 1082.171265,1913.294189 
	C1081.146362,1912.815308 1080.268555,1912.647095 1079.125000,1912.274170 
	C1077.063599,1909.091187 1079.208130,1906.550781 1079.673340,1903.532227 
	C1079.407837,1902.819092 1079.270874,1902.399414 1079.096924,1901.628418 
	C1079.047852,1900.271606 1079.306152,1899.389282 1080.648926,1898.953613 
z"/>
<path fill="#9E9DAD" opacity="1.000000" stroke="none" 
	d="
M1081.859375,1913.305176 
	C1082.880127,1913.036743 1083.736328,1913.089844 1084.853516,1913.095215 
	C1083.846558,1918.022827 1080.121826,1919.074707 1075.656860,1919.026733 
	C1070.743286,1918.973999 1065.828857,1918.986938 1060.458374,1918.868896 
	C1064.168823,1915.722534 1068.957031,1917.425293 1073.455078,1917.129028 
	C1076.730957,1916.913086 1079.702271,1916.588745 1081.859375,1913.305176 
z"/>
<path fill="#AABADB" opacity="1.000000" stroke="none" 
	d="
M949.057800,1876.075684 
	C948.444397,1880.145386 948.039551,1884.273682 948.020996,1888.914062 
	C947.174133,1889.250000 946.456299,1889.131104 945.375366,1888.932373 
	C945.214355,1886.175537 944.594604,1883.602539 944.119446,1880.995483 
	C943.488220,1877.532593 944.630005,1875.461182 949.057800,1876.075684 
z"/>
<path fill="#878CA1" opacity="1.000000" stroke="none" 
	d="
M1166.706543,1902.705811 
	C1170.097778,1903.031250 1173.160645,1903.171509 1176.538086,1903.546875 
	C1166.905396,1903.831177 1156.958008,1903.880615 1146.550781,1903.877197 
	C1147.334961,1902.795532 1148.834473,1903.077881 1150.635986,1902.991943 
	C1153.041138,1902.969971 1155.076416,1902.967163 1157.547852,1902.952515 
	C1158.387573,1902.593872 1158.852295,1902.461914 1159.692871,1902.752686 
	C1161.385254,1902.951782 1162.762817,1902.942749 1164.552979,1902.909912 
	C1165.386108,1902.569946 1165.857056,1902.448242 1166.706543,1902.705811 
z"/>
<path fill="#AABADB" opacity="1.000000" stroke="none" 
	d="
M957.277100,1889.939331 
	C957.080750,1888.684814 956.107056,1887.023315 958.006165,1886.591797 
	C959.065491,1886.351318 958.949097,1887.651733 959.134460,1888.775391 
	C959.175171,1889.136353 959.141724,1889.105225 959.154114,1889.124512 
	C958.824951,1889.203491 958.543030,1889.366455 958.151367,1889.813965 
	C957.981873,1889.995361 957.507996,1889.992554 957.277100,1889.939331 
z"/>
<path fill="#777C88" opacity="1.000000" stroke="none" 
	d="
M1107.745605,1828.571777 
	C1106.506714,1826.938110 1106.943237,1824.772217 1107.457153,1822.312744 
	C1107.715820,1824.054321 1107.772705,1826.097656 1107.745605,1828.571777 
z"/>
<path fill="#878CA1" opacity="1.000000" stroke="none" 
	d="
M1137.503540,1903.896240 
	C1139.076904,1902.537354 1141.188843,1902.981445 1143.599365,1903.626343 
	C1141.907471,1903.864258 1139.917358,1903.907837 1137.503540,1903.896240 
z"/>
<path fill="#777C88" opacity="1.000000" stroke="none" 
	d="
M1107.745605,1856.580811 
	C1106.575439,1855.267090 1106.934204,1853.424316 1107.460205,1851.297363 
	C1107.715942,1852.726685 1107.772705,1854.442627 1107.745605,1856.580811 
z"/>
<path fill="#3B424C" opacity="1.000000" stroke="none" 
	d="
M1114.078003,1852.397095 
	C1115.197510,1853.383545 1115.039673,1854.906250 1114.376709,1856.737549 
	C1114.134033,1855.615356 1114.078979,1854.215454 1114.078003,1852.397095 
z"/>
<path fill="#777C88" opacity="1.000000" stroke="none" 
	d="
M879.424561,1903.920898 
	C879.796753,1903.053467 880.631714,1902.902466 881.767090,1903.692871 
	C881.230713,1903.928589 880.507141,1903.950073 879.424561,1903.920898 
z"/>
<path fill="#9E9DAD" opacity="1.000000" stroke="none" 
	d="
M1055.331299,1918.823975 
	C1055.428833,1918.066284 1055.992065,1917.915527 1056.838623,1918.476807 
	C1056.541992,1918.756226 1056.100220,1918.836182 1055.331299,1918.823975 
z"/>
<path fill="#878CA1" opacity="1.000000" stroke="none" 
	d="
M958.278015,1890.053101 
	C958.277466,1889.853882 958.546082,1889.672485 958.977173,1889.297607 
	C958.969055,1889.466309 958.771606,1889.788574 958.278015,1890.053101 
z"/>
<path fill="#5F606A" opacity="1.000000" stroke="none" 
	d="
M1191.379150,1902.776367 
	C1191.282104,1902.556641 1191.475586,1902.361694 1191.893311,1902.105957 
	C1192.177246,1902.402832 1192.027832,1902.654907 1191.379150,1902.776367 
z"/>
<path fill="#AABADB" opacity="1.000000" stroke="none" 
	d="
M1103.660156,1875.711426 
	C1099.458252,1876.281006 1097.907349,1874.223389 1097.890503,1870.597778 
	C1097.885010,1869.439941 1097.993042,1868.190308 1097.608887,1867.144531 
	C1096.870728,1865.134888 1095.072510,1863.884033 1093.094971,1863.781982 
	C1091.567871,1863.703247 1091.402344,1865.569214 1091.172363,1866.857666 
	C1089.771118,1874.710693 1089.780396,1874.712402 1080.596680,1876.129150 
	C1079.680054,1876.550293 1079.130127,1876.904419 1078.068115,1877.310181 
	C1072.124512,1878.159302 1066.665649,1877.703857 1061.181519,1877.628296 
	C1040.215088,1877.338623 1019.242554,1877.546387 998.272339,1877.589966 
	C990.459473,1877.606201 982.659241,1877.594604 974.857544,1878.079834 
	C972.740479,1878.211426 970.475891,1878.349243 968.354370,1876.325928 
	C966.634827,1870.848633 962.068420,1869.932861 958.008057,1869.372192 
	C953.196045,1868.707764 952.208618,1868.284668 953.582642,1863.900269 
	C957.801392,1850.438965 955.538696,1837.055542 953.461609,1823.624512 
	C952.636963,1818.291870 955.954468,1813.800903 957.257996,1808.913696 
	C958.072937,1805.858398 959.152466,1802.974121 959.011414,1799.752686 
	C958.517395,1788.470947 959.962646,1777.143188 958.121216,1765.884277 
	C957.719055,1763.425293 959.106567,1761.723145 961.546387,1761.118652 
	C963.800659,1760.559937 966.109558,1760.220093 968.359985,1759.648315 
	C970.642883,1759.068481 972.199219,1757.545166 972.665527,1755.245361 
	C973.168396,1752.765625 971.285339,1751.661621 969.469421,1750.777100 
	C966.142761,1749.156738 962.790955,1747.673218 968.601074,1744.771606 
	C968.874817,1744.634888 969.264954,1744.235229 969.223877,1744.035767 
	C967.776062,1737.010864 976.164368,1732.731934 974.225464,1725.300659 
	C973.372009,1722.029541 975.554871,1719.835815 979.656311,1720.898438 
	C981.700989,1721.428101 983.983643,1720.964844 986.101562,1721.305664 
	C988.630432,1721.712402 990.975403,1722.687134 991.640991,1725.601318 
	C992.296936,1728.473755 992.486816,1731.193481 989.504822,1733.113037 
	C988.407532,1733.819458 987.478638,1734.854736 987.096130,1736.582275 
	C985.325439,1740.621338 981.406616,1738.678223 978.632202,1740.433350 
	C977.606995,1741.837280 975.903625,1742.715698 977.667847,1744.722412 
	C978.855652,1746.961060 980.640930,1746.994385 982.535645,1747.146484 
	C984.640320,1747.315186 986.897156,1747.075073 988.898560,1748.813110 
	C990.094177,1750.102905 991.247009,1750.172241 992.719788,1749.318970 
	C993.150574,1748.311279 993.846558,1747.622437 993.809570,1746.825317 
	C993.645386,1743.281616 995.265320,1742.337769 998.696411,1743.230103 
	C998.953430,1743.003540 998.971985,1742.963501 998.992676,1742.955811 
	C1001.617493,1742.567505 1001.448547,1739.993530 1002.812256,1738.211426 
	C1009.906189,1727.098877 1009.755066,1715.217407 1008.111084,1703.093384 
	C1007.636902,1699.596924 1008.896423,1697.095703 1012.836243,1697.037476 
	C1017.068787,1696.974731 1017.426880,1694.021484 1017.698853,1690.925049 
	C1017.726440,1690.610840 1017.535767,1690.283569 1017.489136,1689.956177 
	C1016.018188,1679.634399 1014.524292,1678.935547 1006.178467,1685.763184 
	C1003.332947,1688.090942 1002.207947,1688.166748 1001.024780,1684.737305 
	C1000.718262,1683.848999 1000.136047,1682.669434 999.387512,1682.379150 
	C991.590759,1679.355957 992.121338,1672.201416 991.006226,1665.431885 
	C992.394714,1665.006958 993.782166,1665.004150 995.585999,1665.003174 
	C1000.123230,1662.331055 1004.898621,1663.420654 1009.361450,1662.848999 
	C1011.403625,1662.587280 1013.633606,1662.904175 1015.868164,1662.914307 
	C1015.088440,1661.960205 1013.750671,1661.784668 1013.121948,1660.332275 
	C1013.097839,1658.823730 1013.133362,1657.512085 1014.587585,1657.229614 
	C1022.722717,1655.649902 1030.823730,1654.486084 1039.232300,1655.174194 
	C1050.372314,1656.085815 1061.589478,1656.273804 1072.500000,1652.980957 
	C1074.427246,1652.399170 1076.333618,1651.981445 1078.357788,1651.950439 
	C1080.203613,1651.922119 1082.768066,1651.703491 1083.274292,1650.148438 
	C1084.499146,1646.385376 1086.815796,1644.867798 1090.510498,1644.557739 
	C1091.628418,1644.463867 1092.738770,1643.664795 1092.448975,1642.145996 
	C1091.618042,1637.793213 1094.182495,1633.792725 1095.707153,1630.582886 
	C1098.104492,1625.536011 1098.897461,1619.542236 1103.310059,1615.197266 
	C1103.677246,1616.382812 1103.749146,1617.684204 1103.846069,1619.377441 
	C1105.590454,1621.783813 1104.970947,1624.220093 1104.973511,1626.489624 
	C1105.012085,1659.955688 1105.000610,1693.421875 1104.999634,1726.887939 
	C1104.998413,1765.825684 1104.959106,1804.763550 1105.032104,1843.701172 
	C1105.048462,1852.490723 1103.743530,1861.272339 1104.965820,1870.076416 
	C1105.209229,1871.829956 1105.277100,1873.768799 1103.660156,1875.711426 
z"/>
<path fill="#777C88" opacity="1.000000" stroke="none" 
	d="
M1081.239014,1898.690674 
	C1080.683228,1899.779907 1080.357788,1900.537231 1080.136719,1902.077637 
	C1080.047119,1903.114868 1079.853027,1903.369141 1079.243042,1903.862549 
	C1076.536499,1904.729248 1074.191650,1904.484375 1071.870361,1904.485840 
	C1040.899902,1904.504150 1009.929321,1904.494019 978.958801,1904.505371 
	C976.632751,1904.506226 974.293640,1904.327759 971.546631,1904.878418 
	C970.260498,1905.088623 969.445557,1905.359985 968.229858,1905.700195 
	C967.580383,1905.880127 967.314331,1905.922607 966.649414,1905.919434 
	C966.007141,1905.765747 965.763611,1905.657593 965.253418,1905.251709 
	C961.297913,1896.300049 963.781616,1887.202148 963.043274,1877.917480 
	C964.385315,1877.317749 965.756287,1877.134521 967.539551,1877.016357 
	C970.643433,1879.094482 970.052673,1881.859741 969.664185,1885.005981 
	C969.987793,1888.115601 968.997620,1890.848999 970.146118,1893.843384 
	C971.765381,1898.940552 971.765381,1898.940552 980.045410,1897.357544 
	C982.563843,1895.073730 982.460999,1891.590332 985.056274,1889.307617 
	C989.678101,1886.428589 1000.043457,1887.110229 1003.129456,1890.553223 
	C1002.299072,1892.222778 1000.363708,1891.980957 999.866638,1893.703247 
	C1001.106323,1893.159668 1001.890991,1891.977783 1003.160034,1890.853271 
	C1003.673828,1890.559692 1003.921143,1890.514771 1004.547546,1890.541992 
	C1007.605530,1892.126587 1010.292603,1892.368408 1013.421509,1891.797607 
	C1017.925049,1890.976074 1022.582947,1891.588745 1027.583252,1891.502319 
	C1029.634644,1891.506836 1031.276855,1891.494751 1033.320557,1891.572998 
	C1035.994141,1892.193237 1038.299683,1892.576782 1040.986816,1892.863037 
	C1042.008911,1893.516968 1042.541504,1894.080322 1042.039307,1895.014038 
	C1041.792603,1895.472534 1041.380493,1895.699341 1040.910645,1895.853027 
	C1041.408203,1895.844849 1041.748169,1895.537109 1042.233765,1894.962524 
	C1042.427856,1894.502930 1042.478149,1894.313477 1042.660400,1893.873413 
	C1043.007568,1893.318970 1043.196533,1892.999634 1043.445068,1892.391113 
	C1043.803589,1891.350464 1044.061646,1890.578857 1044.364380,1889.449951 
	C1045.579834,1887.197021 1047.377319,1886.231323 1049.443359,1886.313721 
	C1054.723755,1886.524292 1060.035522,1886.735229 1065.303589,1889.120361 
	C1066.693481,1890.261108 1067.566650,1891.511597 1069.232300,1891.531128 
	C1072.322632,1891.567261 1072.764404,1893.736694 1073.146240,1896.223022 
	C1077.855103,1896.739258 1077.357666,1893.187622 1078.253906,1890.307983 
	C1078.675171,1889.907227 1078.877563,1889.784668 1079.435791,1889.654053 
	C1080.866577,1890.065918 1080.930176,1891.053955 1081.215820,1892.316650 
	C1081.891357,1894.541870 1082.165405,1896.438232 1081.239014,1898.690674 
z"/>
<path fill="#C2C6DA" opacity="1.000000" stroke="none" 
	d="
M968.450806,1886.197632 
	C968.142944,1883.282349 968.083740,1880.622925 967.988159,1877.522461 
	C967.958496,1876.899658 967.965210,1876.717773 967.984741,1876.263062 
	C1004.387634,1875.993896 1040.777710,1875.997437 1077.601440,1876.005371 
	C1077.989990,1881.356079 1074.697388,1884.847900 1070.698486,1887.456299 
	C1067.823120,1889.332031 1064.933228,1888.132324 1063.089722,1885.136230 
	C1062.344971,1883.925659 1062.476318,1882.120117 1060.302124,1881.569946 
	C1057.782715,1880.732544 1055.475220,1881.310425 1052.940063,1880.659058 
	C1052.114746,1880.511353 1051.644775,1880.454102 1050.850586,1880.328613 
	C1049.934692,1880.064819 1049.340576,1879.892456 1048.399780,1880.201416 
	C1046.181274,1880.955322 1044.265869,1881.026978 1042.023315,1880.305298 
	C1041.171753,1879.943604 1040.652344,1879.607544 1039.727051,1880.025391 
	C1038.064941,1880.728027 1036.620483,1880.439453 1034.866577,1880.508667 
	C1033.394409,1880.358398 1032.415283,1879.405151 1031.168945,1879.942383 
	C1030.679199,1880.153564 1030.557007,1880.242676 1030.938965,1880.375732 
	C1031.249634,1880.484009 1031.584106,1880.525757 1032.244385,1880.713379 
	C1033.657715,1881.424072 1034.990723,1881.494995 1036.098267,1882.758789 
	C1036.288818,1885.871582 1034.101318,1886.562378 1032.087402,1887.297363 
	C1026.472412,1889.346924 1020.747925,1889.543091 1014.945862,1888.137329 
	C1012.813354,1887.620728 1010.417175,1887.240356 1010.267700,1884.510254 
	C1010.105774,1881.552246 1012.404907,1880.706787 1014.854370,1880.169678 
	C1008.284058,1879.625854 1001.850220,1879.813599 995.416504,1882.547363 
	C993.429443,1881.128540 991.360291,1880.994507 989.153931,1880.334229 
	C988.344788,1880.029907 987.827515,1879.810059 986.971191,1880.025024 
	C986.306763,1880.247192 985.910217,1880.345825 985.187256,1880.476562 
	C980.494446,1885.284058 975.498901,1888.332520 968.450806,1886.197632 
z"/>
<path fill="#C2C6DA" opacity="1.000000" stroke="none" 
	d="
M989.347534,1748.907104 
	C985.934448,1749.119263 982.738586,1748.683350 979.722839,1749.234009 
	C975.895142,1749.932861 975.831543,1748.466797 976.927856,1745.330566 
	C975.737183,1743.711914 976.264709,1742.271606 976.744629,1740.463379 
	C979.051208,1736.082397 983.390381,1738.833252 986.630310,1736.965576 
	C991.332153,1738.713745 992.360046,1743.364868 989.347534,1748.907104 
z"/>
<path fill="#C2C6DA" opacity="1.000000" stroke="none" 
	d="
M998.634155,1742.872559 
	C998.767578,1743.621582 998.581665,1744.239624 998.395813,1744.857666 
	C994.346497,1743.287476 995.520508,1747.895264 993.294434,1748.998291 
	C991.883972,1746.267944 993.397949,1743.437012 993.008240,1740.580200 
	C992.878967,1739.632080 993.111267,1738.487061 994.329285,1738.322876 
	C995.547546,1738.158569 995.866394,1739.252319 996.265808,1740.142456 
	C996.729370,1741.175415 997.125793,1742.274780 998.634155,1742.872559 
z"/>
<path fill="#C2C6DA" opacity="1.000000" stroke="none" 
	d="
M1002.689026,1738.016968 
	C1002.987732,1741.124634 1002.939941,1744.271362 1002.839294,1747.416626 
	C1002.831787,1747.651245 1002.445984,1747.873779 1002.165344,1748.178711 
	C999.455566,1747.287964 1002.663330,1743.500610 999.308960,1742.894531 
	C998.757385,1740.394653 999.921570,1738.803711 1002.689026,1738.016968 
z"/>
<path fill="#696C77" opacity="1.000000" stroke="none" 
	d="
M1166.784668,1741.264648 
	C1168.473022,1742.327759 1168.986328,1744.020630 1168.986328,1745.932617 
	C1168.986084,1757.339600 1168.960327,1768.746826 1169.028564,1780.153442 
	C1169.043091,1782.578979 1168.479858,1785.084229 1170.221069,1787.346436 
	C1171.621094,1789.165405 1169.877808,1789.928467 1168.277710,1790.845703 
	C1165.778442,1785.394409 1167.272339,1779.535889 1166.844238,1773.810913 
	C1166.041626,1763.079102 1166.051025,1752.297119 1166.784668,1741.264648 
z"/>
<path fill="#696C77" opacity="1.000000" stroke="none" 
	d="
M1170.009644,1898.543823 
	C1169.226685,1899.311035 1168.444336,1899.649414 1167.328613,1899.996338 
	C1168.782715,1889.573242 1167.758667,1879.138428 1167.050903,1868.701660 
	C1166.963013,1867.406494 1166.818237,1866.011719 1168.625732,1865.107422 
	C1170.372070,1874.515991 1172.269531,1884.013428 1170.592529,1893.716675 
	C1170.340942,1895.172729 1170.201660,1896.648438 1170.009644,1898.543823 
z"/>
<path fill="#696C77" opacity="1.000000" stroke="none" 
	d="
M1166.742188,1696.329346 
	C1167.289551,1696.583618 1167.833984,1697.162720 1167.844482,1697.751221 
	C1168.074829,1710.617432 1168.997803,1723.491821 1167.274292,1736.671753 
	C1166.725586,1736.423584 1166.163452,1735.847778 1166.162354,1735.270752 
	C1166.138916,1722.399292 1165.439209,1709.520630 1166.742188,1696.329346 
z"/>
<path fill="#696C77" opacity="1.000000" stroke="none" 
	d="
M1167.723022,1797.334106 
	C1170.193726,1806.471680 1170.806030,1815.971436 1168.285400,1825.766479 
	C1166.048828,1823.148438 1167.052124,1819.911621 1167.065674,1816.876465 
	C1167.094360,1810.473999 1166.423950,1804.046143 1167.723022,1797.334106 
z"/>
<path fill="#696C77" opacity="1.000000" stroke="none" 
	d="
M1167.776855,1847.319824 
	C1169.537598,1851.693848 1170.755493,1856.418213 1169.201782,1861.700928 
	C1165.526489,1860.438477 1167.262207,1857.381226 1167.078369,1854.991455 
	C1166.891968,1852.569824 1166.548096,1850.037964 1167.776855,1847.319824 
z"/>
<path fill="#696C77" opacity="1.000000" stroke="none" 
	d="
M1159.990479,1902.645874 
	C1159.557739,1902.973267 1159.107544,1902.985718 1158.320679,1902.969482 
	C1158.222046,1902.200928 1158.293945,1900.965576 1158.730957,1900.819092 
	C1159.820312,1900.454102 1159.834717,1901.567505 1159.990479,1902.645874 
z"/>
<path fill="#696C77" opacity="1.000000" stroke="none" 
	d="
M1167.024170,1902.530029 
	C1166.574585,1902.913086 1166.114502,1902.935059 1165.309937,1902.921631 
	C1165.052856,1901.782837 1165.068970,1900.642944 1166.684570,1900.077148 
	C1167.007812,1900.719727 1167.010620,1901.444458 1167.024170,1902.530029 
z"/>
<path fill="#696C77" opacity="1.000000" stroke="none" 
	d="
M1167.839355,1831.161133 
	C1168.603638,1831.455933 1168.899048,1831.974609 1168.219482,1832.835205 
	C1167.448120,1832.550415 1167.150635,1832.029907 1167.839355,1831.161133 
z"/>
<path fill="#777C88" opacity="1.000000" stroke="none" 
	d="
M1128.606567,1713.320801 
	C1130.506958,1711.296509 1129.922241,1709.199707 1129.957642,1707.257080 
	C1130.194946,1694.166870 1129.519043,1681.055420 1130.965210,1667.992676 
	C1131.203613,1665.839478 1130.828003,1663.309082 1133.938354,1663.179199 
	C1136.823730,1663.058716 1137.353638,1665.059326 1138.218262,1667.556396 
	C1139.576904,1671.479980 1138.957275,1675.239258 1139.114868,1679.122314 
	C1140.929321,1723.873901 1139.652466,1768.641846 1139.997437,1813.399536 
	C1140.151001,1833.312256 1140.052002,1853.227539 1139.956665,1873.140991 
	C1139.941650,1876.273193 1139.174316,1879.396118 1139.053711,1882.534912 
	C1138.954224,1885.121460 1137.821777,1886.111938 1135.346558,1886.012817 
	C1132.992920,1885.918457 1130.455200,1886.207520 1130.078003,1882.890747 
	C1129.947021,1881.738037 1129.990234,1880.562988 1129.989624,1879.398193 
	C1129.980347,1860.097656 1129.984497,1840.796997 1129.948608,1821.496460 
	C1129.946899,1820.529297 1129.610229,1819.562744 1129.177979,1818.309082 
	C1128.453003,1817.578369 1128.153687,1817.038452 1128.028076,1815.931396 
	C1128.577148,1802.500854 1129.114990,1789.554810 1127.712524,1776.591675 
	C1127.088501,1770.823730 1127.868774,1765.023560 1128.272949,1759.218262 
	C1128.965820,1749.265869 1128.714111,1739.235718 1128.345093,1729.249023 
	C1128.197998,1725.270020 1128.198364,1721.306152 1128.154297,1716.875854 
	C1127.967773,1715.486572 1127.850952,1714.553833 1128.606567,1713.320801 
z"/>
<path fill="#5F606A" opacity="1.000000" stroke="none" 
	d="
M1128.951660,1815.508423 
	C1128.933105,1816.439941 1128.938232,1816.891724 1128.934814,1817.682861 
	C1127.513184,1819.758301 1128.021606,1821.826782 1128.015991,1823.766968 
	C1127.976685,1837.515259 1128.007935,1851.263672 1127.979614,1865.011963 
	C1127.975830,1866.810669 1128.323608,1868.666138 1127.172852,1870.707764 
	C1125.695435,1869.609009 1125.980103,1867.890015 1125.979980,1866.251099 
	C1125.978516,1837.141602 1125.992676,1808.031982 1126.034180,1778.453857 
	C1129.942627,1777.303101 1128.923950,1780.321533 1128.940918,1782.114502 
	C1129.044922,1793.085083 1129.027832,1804.057129 1128.951660,1815.508423 
z"/>
<path fill="#5F606A" opacity="1.000000" stroke="none" 
	d="
M1124.360962,1900.868408 
	C1124.694702,1895.420044 1122.566284,1889.644531 1125.540894,1884.037231 
	C1125.384399,1889.483154 1127.491943,1895.280640 1124.360962,1900.868408 
z"/>
<path fill="#5F606A" opacity="1.000000" stroke="none" 
	d="
M1128.709595,1712.731689 
	C1128.932129,1713.723633 1128.941162,1714.471680 1128.943604,1715.593262 
	C1128.554565,1716.380127 1128.085205,1716.541748 1127.198242,1716.239136 
	C1125.510010,1713.950195 1125.817139,1711.771362 1126.696289,1709.277100 
	C1128.159790,1709.830811 1127.795898,1711.398315 1128.709595,1712.731689 
z"/>
<path fill="#5F606A" opacity="1.000000" stroke="none" 
	d="
M1126.194702,1879.859619 
	C1124.669312,1878.581665 1125.796631,1877.518188 1126.693726,1876.179932 
	C1128.447021,1877.410034 1127.882324,1878.604004 1126.194702,1879.859619 
z"/>
<path fill="#696C77" opacity="1.000000" stroke="none" 
	d="
M1182.573730,1804.048706 
	C1182.962891,1826.719727 1183.101440,1849.485840 1182.903564,1872.249023 
	C1182.854980,1877.852905 1181.682007,1883.445679 1181.972900,1889.569092 
	C1180.013428,1889.720459 1179.354858,1888.482666 1178.983887,1886.619873 
	C1177.404663,1878.689697 1178.356445,1870.720947 1179.268066,1862.917480 
	C1180.162231,1855.264404 1179.803345,1847.678467 1179.940918,1840.067993 
	C1180.124023,1829.938232 1179.968262,1819.802490 1180.014038,1809.669678 
	C1180.023438,1807.590454 1179.481812,1805.194214 1182.573730,1804.048706 
z"/>
<path fill="#696C77" opacity="1.000000" stroke="none" 
	d="
M1182.728760,1713.325928 
	C1183.271606,1713.579956 1183.843872,1714.170166 1183.825195,1714.740845 
	C1183.415405,1727.275635 1184.635620,1739.825562 1183.223511,1752.677002 
	C1182.677856,1752.412109 1182.151245,1751.825806 1182.141602,1751.231201 
	C1181.940186,1738.702881 1181.245117,1726.167969 1182.728760,1713.325928 
z"/>
<path fill="#696C77" opacity="1.000000" stroke="none" 
	d="
M1182.722900,1755.329102 
	C1184.486450,1759.931152 1184.888550,1764.849731 1182.421997,1769.884033 
	C1182.192139,1765.240356 1181.501343,1760.425781 1182.722900,1755.329102 
z"/>
<path fill="#696C77" opacity="1.000000" stroke="none" 
	d="
M1181.741089,1893.238525 
	C1183.081055,1894.037231 1183.191162,1895.219360 1182.232788,1896.759155 
	C1180.910645,1895.954712 1180.802612,1894.774536 1181.741089,1893.238525 
z"/>
<path fill="#696C77" opacity="1.000000" stroke="none" 
	d="
M1126.880127,1716.472778 
	C1127.328613,1716.013672 1127.789551,1716.000610 1128.593994,1715.977295 
	C1130.972778,1718.570312 1129.157104,1721.451416 1129.367065,1724.192505 
	C1130.370361,1737.294556 1130.505127,1750.440308 1129.333496,1763.561890 
	C1128.903687,1768.375610 1129.321045,1773.141357 1129.587769,1777.959839 
	C1130.276489,1790.402344 1130.493408,1802.890137 1129.194092,1815.668701 
	C1127.438110,1814.078125 1128.036011,1811.835327 1128.021484,1809.730591 
	C1127.960449,1800.931641 1128.033813,1792.131714 1127.969360,1783.332886 
	C1127.956665,1781.600464 1128.625977,1779.615234 1126.428955,1778.126465 
	C1126.063599,1772.642212 1126.062378,1767.299316 1126.083496,1761.490723 
	C1127.485840,1759.107666 1127.015381,1756.894043 1126.968018,1754.806885 
	C1126.778687,1746.443237 1127.547607,1738.063599 1126.330688,1729.345337 
	C1126.359863,1724.957520 1126.626221,1720.938110 1126.880127,1716.472778 
z"/>
<path fill="#5F606A" opacity="1.000000" stroke="none" 
	d="
M1126.054077,1729.446167 
	C1127.665161,1729.415283 1127.981445,1730.625732 1127.979614,1732.036255 
	C1127.967773,1740.910400 1127.982422,1749.784668 1127.897949,1758.658081 
	C1127.891235,1759.351929 1127.196777,1760.039307 1126.463867,1760.877441 
	C1126.075317,1750.655273 1126.045044,1740.285400 1126.054077,1729.446167 
z"/>
<path fill="#3B424C" opacity="1.000000" stroke="none" 
	d="
M863.548340,1899.508423 
	C862.552246,1900.140503 861.559998,1900.293335 860.619629,1900.603638 
	C857.388794,1901.669800 855.904297,1900.640503 855.989380,1897.141846 
	C856.090576,1892.978882 855.952026,1888.810669 855.952515,1884.644653 
	C855.961853,1805.323242 855.976318,1726.001953 855.991089,1646.680542 
	C855.991394,1645.347656 856.035461,1644.014160 856.013123,1642.681885 
	C855.976807,1640.511963 857.412415,1639.696533 859.187866,1639.583374 
	C861.670715,1639.425293 861.034607,1641.511230 861.039429,1642.810791 
	C861.099426,1658.974731 861.094604,1675.139160 861.093140,1691.303345 
	C861.088745,1739.796143 861.062744,1788.288818 861.123169,1836.781494 
	C861.125854,1838.910278 859.959595,1841.579712 863.154541,1843.149780 
	C862.663757,1858.726929 863.015747,1874.194336 863.005920,1889.656616 
	C863.003967,1892.804688 863.376160,1895.953003 863.548340,1899.508423 
z"/>
<path fill="#9E9DAD" opacity="1.000000" stroke="none" 
	d="
M966.484741,1905.216797 
	C967.008667,1904.624878 967.628235,1904.397827 968.578125,1904.106934 
	C979.129456,1902.826904 989.388977,1903.826294 1000.097412,1903.528809 
	C1001.953674,1904.168701 1003.388489,1904.492798 1004.920044,1904.492554 
	C1019.568970,1904.490967 1034.217896,1904.551025 1048.866821,1904.453735 
	C1049.704834,1904.448120 1050.522583,1904.307373 1051.724365,1903.781860 
	C1061.176392,1903.324219 1070.200806,1903.645630 1079.643188,1903.242676 
	C1080.064453,1903.041504 1080.001465,1903.005249 1080.025146,1903.032959 
	C1080.177490,1902.896851 1080.306152,1902.733276 1080.685791,1902.755615 
	C1081.715332,1902.775513 1082.494019,1902.609375 1083.272705,1902.443237 
	C1083.328125,1902.867188 1083.501343,1903.638550 1083.422119,1903.665405 
	C1079.604614,1904.959961 1080.613892,1908.815308 1079.067261,1911.737549 
	C1073.708618,1911.893311 1068.258057,1912.747070 1063.462646,1911.350830 
	C1048.048096,1906.862549 1032.499634,1907.851685 1016.925842,1909.080322 
	C1014.201111,1909.295410 1011.700989,1909.403931 1008.972534,1909.085327 
	C1005.812073,1908.716309 1002.437256,1908.256714 999.312561,1910.344360 
	C997.361572,1911.647705 994.846313,1911.331055 992.309082,1910.141235 
	C990.322205,1907.010254 987.224731,1907.911865 984.953796,1907.876343 
	C980.561401,1907.807617 976.170349,1907.048584 971.744690,1907.626465 
	C969.815125,1907.878296 967.763733,1907.612305 966.484741,1905.216797 
z"/>
<path fill="#878CA1" opacity="1.000000" stroke="none" 
	d="
M966.144775,1904.930420 
	C970.227966,1907.261353 974.415161,1905.956665 978.480591,1906.002930 
	C982.426941,1906.047974 986.373840,1906.127197 990.317749,1906.267822 
	C992.288269,1906.337891 992.949036,1907.410034 992.140259,1909.564941 
	C991.575012,1909.895996 991.116577,1909.938232 990.312988,1909.974609 
	C986.469360,1910.280273 982.930359,1912.368286 979.397095,1909.348145 
	C975.829468,1908.964111 972.363708,1908.962280 968.523438,1909.019043 
	C966.464661,1908.696533 965.374207,1907.761841 965.325073,1905.567871 
	C965.580078,1905.130127 965.740234,1905.069702 966.144775,1904.930420 
z"/>
<path fill="#9E9DAD" opacity="1.000000" stroke="none" 
	d="
M979.105469,1909.268433 
	C982.475220,1911.512817 986.074280,1907.773071 989.634033,1909.800781 
	C986.658630,1913.182251 979.968079,1912.941284 979.105469,1909.268433 
z"/>
<path fill="#3B424C" opacity="1.000000" stroke="none" 
	d="
M965.298706,1905.155029 
	C966.218933,1906.288818 967.017944,1907.387329 967.982910,1908.781738 
	C968.048889,1910.267212 968.780823,1911.542114 967.412964,1912.669678 
	C968.023438,1909.540894 963.328308,1908.424683 964.673218,1905.100342 
	C964.986694,1904.953979 965.177429,1905.119629 965.298706,1905.155029 
z"/>
<path fill="#B7B7C7" opacity="1.000000" stroke="none" 
	d="
M1060.609619,1879.373535 
	C1063.426514,1879.384277 1063.645142,1881.460571 1064.080078,1883.394531 
	C1064.471558,1885.135010 1065.436646,1886.573730 1067.271729,1886.685303 
	C1069.069214,1886.794678 1070.780029,1886.256104 1071.946899,1884.550781 
	C1073.794067,1881.851074 1075.773438,1879.241577 1077.865967,1876.301758 
	C1078.514893,1876.026978 1078.994507,1876.044189 1079.835938,1876.103516 
	C1080.197510,1876.145752 1080.138672,1876.639893 1080.121460,1876.888062 
	C1080.779663,1879.386841 1080.404297,1881.770508 1080.985596,1884.473633 
	C1080.932861,1886.370850 1081.182007,1887.861084 1080.207520,1889.556641 
	C1079.884521,1889.857666 1079.385742,1889.891846 1079.150513,1889.976318 
	C1077.823730,1890.991577 1078.187256,1892.828003 1076.416016,1893.669800 
	C1072.574951,1892.784790 1069.019897,1891.991455 1065.178833,1891.251465 
	C1058.502197,1889.742065 1052.194092,1885.434570 1045.444336,1890.345215 
	C1045.163818,1891.224243 1044.726318,1891.541870 1043.739624,1891.801147 
	C1039.724609,1893.336426 1036.216309,1891.905640 1032.251465,1891.517578 
	C1030.735718,1891.498169 1029.655273,1891.662231 1028.176514,1891.942383 
	C1027.494385,1891.980225 1027.220947,1891.986328 1026.536621,1891.995117 
	C1020.922302,1892.117798 1015.701294,1891.661011 1010.121826,1892.480957 
	C1008.189209,1892.439697 1006.612061,1892.639282 1004.910156,1891.506348 
	C1004.333557,1891.196167 1004.070251,1891.105103 1003.410767,1891.013916 
	C1002.936218,1890.866821 1002.894104,1890.636719 1002.774658,1890.584961 
	C997.498047,1888.297607 992.014709,1889.661133 986.337036,1889.854004 
	C983.889587,1892.946777 980.711670,1891.874878 977.511841,1892.104004 
	C976.274841,1892.095337 975.396301,1891.917480 974.193176,1891.761108 
	C973.278748,1891.586060 972.739258,1891.238647 971.823853,1891.338501 
	C970.271790,1892.130859 970.529175,1893.813721 969.154053,1894.784668 
	C967.693848,1892.293091 968.561523,1889.505737 968.207275,1886.377197 
	C974.474121,1885.292725 980.599243,1884.324097 984.723145,1878.628540 
	C988.512756,1884.631592 989.470398,1884.867065 994.303894,1880.981934 
	C995.705200,1881.213989 996.650879,1881.957397 997.823242,1880.839233 
	C1000.945496,1877.860718 1016.586792,1876.804810 1020.317688,1879.221924 
	C1020.687561,1879.461548 1021.178162,1879.874634 1021.196472,1880.228516 
	C1021.249451,1881.249390 1020.390259,1881.670410 1019.578796,1881.753906 
	C1017.596924,1881.957642 1015.592529,1881.943115 1013.610291,1882.144409 
	C1012.352478,1882.271973 1011.373169,1882.961182 1011.365601,1884.365845 
	C1011.360291,1885.344849 1012.138916,1885.745850 1013.008362,1885.915649 
	C1020.785645,1887.436157 1028.457520,1887.933594 1035.806152,1883.241455 
	C1036.189697,1880.826904 1037.784424,1880.933228 1039.219238,1880.982178 
	C1042.608398,1881.097412 1046.008911,1880.769043 1049.769531,1881.328369 
	C1055.933350,1884.133545 1058.012939,1883.773193 1060.609619,1879.373535 
z"/>
<path fill="#777C88" opacity="1.000000" stroke="none" 
	d="
M1103.546143,1876.360840 
	C1103.539062,1874.277344 1103.952393,1872.480103 1103.952393,1870.682983 
	C1103.952026,1787.372437 1103.915649,1704.062012 1103.877441,1620.260376 
	C1106.893066,1620.337646 1105.980347,1622.756470 1105.980957,1624.565674 
	C1105.991089,1657.703857 1105.931396,1690.842163 1105.918335,1723.980347 
	C1105.902466,1764.762085 1105.944946,1805.543823 1105.884277,1846.325562 
	C1105.875610,1852.136353 1104.304932,1858.184937 1105.474243,1863.695557 
	C1106.875366,1870.298096 1104.373535,1876.220093 1104.345703,1882.488403 
	C1104.155029,1880.541382 1103.964478,1878.594238 1103.546143,1876.360840 
z"/>
<path fill="#5F606A" opacity="1.000000" stroke="none" 
	d="
M1079.954590,1890.155518 
	C1079.915649,1888.520386 1079.946655,1887.182983 1080.030273,1885.445557 
	C1080.372070,1884.669800 1080.749634,1884.554199 1081.353760,1884.955322 
	C1081.520386,1887.455933 1081.537231,1889.665405 1081.441284,1892.263794 
	C1080.103516,1892.388184 1080.216064,1891.330688 1079.954590,1890.155518 
z"/>
<path fill="#777C88" opacity="1.000000" stroke="none" 
	d="
M1081.610107,1884.850098 
	C1081.193237,1885.174561 1080.879883,1885.120483 1080.323242,1885.064941 
	C1080.061279,1882.697754 1080.039551,1880.349854 1080.061035,1877.569092 
	C1081.587280,1879.367065 1081.357544,1881.975220 1081.610107,1884.850098 
z"/>
<path fill="#251410" opacity="1.000000" stroke="none" 
	d="
M1080.883545,1902.694824 
	C1080.936646,1902.941772 1080.507812,1903.115601 1080.278320,1903.088135 
	C1079.909302,1902.881958 1079.770020,1902.703491 1079.802246,1902.231689 
	C1080.259277,1902.108276 1080.544800,1902.278076 1080.883545,1902.694824 
z"/>
<path fill="#C2C6DA" opacity="1.000000" stroke="none" 
	d="
M1039.995605,1745.655518 
	C1040.072632,1748.104736 1039.060181,1749.117432 1036.983032,1749.003540 
	C1035.495239,1748.921875 1034.000000,1748.581543 1032.529175,1748.677734 
	C1030.332886,1748.821533 1027.837646,1749.526001 1028.057861,1746.031738 
	C1028.189087,1743.951782 1026.736450,1741.031738 1030.071289,1740.143188 
	C1033.070068,1739.344238 1034.775757,1740.926514 1035.485352,1743.789673 
	C1035.560547,1744.093140 1035.830688,1744.348145 1036.443115,1745.293213 
	C1036.893311,1741.897827 1037.625732,1739.015015 1041.612549,1740.147095 
	C1044.646729,1741.008423 1045.197754,1743.282959 1044.998291,1745.982910 
	C1044.915771,1747.099731 1045.069824,1748.562134 1043.423096,1748.576172 
	C1042.110352,1748.587280 1042.299072,1747.250244 1041.908569,1746.389038 
	C1041.638916,1745.794678 1042.439575,1742.373779 1039.995605,1745.655518 
z"/>
<path fill="#C2C6DA" opacity="1.000000" stroke="none" 
	d="
M1009.367981,1738.445923 
	C1011.999207,1736.566772 1013.896484,1737.171509 1015.761719,1739.144897 
	C1017.484985,1740.968018 1018.577881,1742.754883 1017.377014,1745.324951 
	C1016.754822,1746.656616 1016.511108,1748.163696 1015.902710,1749.503540 
	C1014.670715,1752.216553 1013.268677,1752.896606 1010.882812,1750.287231 
	C1007.603333,1746.700439 1005.417664,1743.217041 1009.367981,1738.445923 
z"/>
<path fill="#C2C6DA" opacity="1.000000" stroke="none" 
	d="
M1052.002563,1746.140381 
	C1051.637695,1744.662964 1052.618652,1742.555054 1050.483765,1742.841431 
	C1048.885376,1743.055908 1048.930298,1744.799561 1049.463501,1746.112183 
	C1049.927490,1747.254272 1051.406494,1748.530273 1049.187988,1749.181641 
	C1047.284302,1749.740601 1046.221313,1748.088989 1046.235718,1746.681641 
	C1046.261597,1744.132324 1044.232056,1740.736450 1047.813354,1739.244141 
	C1050.591064,1738.086792 1054.762451,1741.944946 1055.596680,1746.995728 
	C1056.075562,1745.821533 1056.156250,1745.307129 1056.445068,1744.971924 
	C1057.539551,1743.701538 1055.830200,1740.954712 1058.584106,1740.698364 
	C1059.410278,1740.621338 1059.915161,1741.769775 1059.816772,1742.596802 
	C1059.551758,1744.823608 1059.879761,1747.678711 1057.456787,1748.640625 
	C1055.555908,1749.395386 1052.687500,1750.128052 1052.002563,1746.140381 
z"/>
<path fill="#C2C6DA" opacity="1.000000" stroke="none" 
	d="
M1066.999512,1748.811279 
	C1064.197876,1748.107422 1065.624268,1745.585571 1064.326172,1743.867188 
	C1064.098145,1745.338013 1064.057983,1746.491699 1063.718628,1747.549438 
	C1063.335083,1748.744995 1062.204590,1749.158691 1061.542603,1748.042603 
	C1060.389648,1746.098877 1060.827271,1743.825806 1061.230347,1741.741577 
	C1061.604248,1739.807251 1063.447144,1739.815186 1064.869629,1740.046021 
	C1067.677979,1740.502319 1071.635376,1738.205322 1072.845215,1742.758301 
	C1073.316528,1744.531982 1073.891846,1747.500977 1071.700195,1748.080811 
	C1068.662720,1748.884521 1071.079468,1745.114624 1069.441040,1744.260132 
	C1068.281616,1745.561523 1069.846680,1748.124878 1066.999512,1748.811279 
z"/>
<path fill="#C2C6DA" opacity="1.000000" stroke="none" 
	d="
M1022.034668,1744.456543 
	C1023.674255,1745.608032 1023.639648,1745.599365 1023.947998,1744.363770 
	C1024.271606,1743.066772 1023.240784,1740.667603 1025.362427,1740.788818 
	C1027.461792,1740.908691 1026.938110,1743.319580 1026.997681,1744.903564 
	C1027.072632,1746.893433 1026.557373,1748.675293 1024.217285,1748.882080 
	C1022.493591,1749.034302 1020.204956,1749.779053 1019.380798,1747.589844 
	C1018.577148,1745.455200 1018.489441,1743.034668 1019.649963,1740.857300 
	C1019.793640,1740.587646 1020.623047,1740.391968 1020.933044,1740.552124 
	C1022.440369,1741.331055 1021.829956,1742.849976 1022.034668,1744.456543 
z"/>
<path fill="#777C88" opacity="1.000000" stroke="none" 
	d="
M1077.737793,1867.943115 
	C1072.470581,1866.753296 1072.423096,1866.577637 1076.039795,1861.762207 
	C1077.374878,1863.707275 1079.503418,1865.086548 1077.737793,1867.943115 
z"/>
<path fill="#A4B4D0" opacity="1.000000" stroke="none" 
	d="
M970.312134,1867.741455 
	C968.486816,1868.743408 966.698242,1871.014771 965.295959,1868.316895 
	C964.251648,1866.307617 965.738525,1864.980591 968.421509,1864.994751 
	C969.268127,1864.971313 969.721008,1865.053223 970.414917,1865.465942 
	C970.790344,1865.852295 970.907288,1866.003906 971.191528,1866.389038 
	C971.201599,1867.023560 970.942871,1867.342285 970.312134,1867.741455 
z"/>
<path fill="#A4B4D0" opacity="1.000000" stroke="none" 
	d="
M976.690674,1740.268799 
	C976.953674,1741.432617 976.969421,1742.793945 976.977234,1744.564575 
	C975.644165,1744.937744 973.948914,1745.056152 973.659973,1743.499390 
	C973.322510,1741.680664 975.859192,1741.833130 976.690674,1740.268799 
z"/>
<path fill="#5F606A" opacity="1.000000" stroke="none" 
	d="
M970.344360,1867.945801 
	C970.351990,1867.568237 970.662659,1867.232544 971.166138,1866.759644 
	C972.363098,1866.049927 973.607300,1866.054443 973.439514,1867.347778 
	C973.208252,1869.130493 971.652222,1867.965454 970.344360,1867.945801 
z"/>
<path fill="#696C77" opacity="1.000000" stroke="none" 
	d="
M970.908936,1865.514648 
	C970.137390,1865.633545 969.601318,1865.566406 968.931641,1865.242432 
	C969.435425,1863.395020 970.494690,1862.408203 972.030518,1863.753052 
	C973.000977,1864.602783 971.779785,1864.971680 970.908936,1865.514648 
z"/>
<path fill="#251410" opacity="1.000000" stroke="none" 
	d="
M1001.568909,1904.646484 
	C990.690918,1904.357056 980.274170,1904.231934 969.382996,1904.074707 
	C970.737732,1901.782471 973.244080,1902.927734 975.408813,1902.921509 
	C1008.021729,1902.826904 1040.634888,1902.835938 1073.248047,1902.800659 
	C1075.241699,1902.798462 1077.235107,1902.629639 1079.646484,1902.790039 
	C1073.222778,1905.394653 1066.161255,1903.846680 1059.207275,1904.197754 
	C1057.080078,1904.304932 1054.942139,1904.201294 1052.351318,1904.331787 
	C1047.458618,1905.574341 1042.947021,1904.956787 1038.478882,1904.957520 
	C1026.329590,1904.959473 1014.177795,1905.244873 1001.568909,1904.646484 
z"/>
<path fill="#000000" opacity="1.000000" stroke="none" 
	d="
M968.940918,1895.348389 
	C969.583923,1893.028687 967.689880,1890.603882 970.426697,1889.047852 
	C971.907288,1889.534912 972.254700,1891.096069 974.011780,1890.965820 
	C974.955505,1890.566528 975.604797,1889.651489 976.480164,1891.032471 
	C980.225708,1892.258667 983.477173,1893.606079 982.299072,1898.649902 
	C978.706299,1901.211182 974.685608,1899.668335 970.930969,1900.604980 
	C967.753479,1901.397705 969.774536,1897.448975 968.940918,1895.348389 
z"/>
<path fill="#C2C6DA" opacity="1.000000" stroke="none" 
	d="
M1064.953247,1891.384766 
	C1068.521240,1891.472778 1072.327148,1890.599487 1075.881714,1892.980469 
	C1077.636597,1895.755615 1074.413818,1895.802734 1073.612549,1897.616211 
	C1072.708862,1898.277588 1072.023682,1898.755371 1071.263306,1898.989014 
	C1070.264648,1899.296021 1069.271606,1899.123779 1068.706421,1898.110229 
	C1067.877197,1896.623535 1069.662842,1896.836182 1070.078369,1896.135498 
	C1070.543945,1895.350586 1071.708618,1894.967407 1071.423828,1893.732178 
	C1069.543823,1892.120361 1066.452393,1894.579712 1064.953247,1891.384766 
z"/>
<path fill="#C2C6DA" opacity="1.000000" stroke="none" 
	d="
M982.448975,1898.875366 
	C982.234314,1895.048096 979.849915,1893.505127 976.415955,1892.946411 
	C976.327271,1892.931885 976.191956,1892.662231 976.223877,1892.554565 
	C976.303223,1892.287231 976.466797,1892.044678 976.660400,1891.450928 
	C979.475708,1889.279541 982.619751,1891.304688 985.757690,1890.122803 
	C984.376343,1892.724243 983.503479,1895.733276 982.448975,1898.875366 
z"/>
<path fill="#C2C6DA" opacity="1.000000" stroke="none" 
	d="
M1002.990417,1890.975830 
	C1003.282715,1892.508301 1002.642273,1893.866821 1002.271057,1895.301758 
	C1001.854004,1896.913330 1001.235474,1898.216675 999.381348,1898.057251 
	C997.414185,1897.888062 998.007690,1896.287231 997.542725,1894.985718 
	C995.346375,1888.837646 999.026306,1890.271118 1002.649902,1890.959839 
	C1003.014404,1891.013794 1003.008606,1890.978516 1002.990417,1890.975830 
z"/>
<path fill="#E8BC7C" opacity="1.000000" stroke="none" 
	d="
M1026.647461,1891.221558 
	C1027.157227,1890.979980 1027.327637,1890.965332 1027.754272,1890.955444 
	C1028.408936,1891.479614 1028.528320,1892.056885 1027.951416,1892.889404 
	C1021.825439,1893.443848 1016.069641,1892.625854 1010.392029,1894.066284 
	C1008.250549,1894.609741 1006.214722,1893.721069 1004.679260,1891.589844 
	C1005.482056,1891.272583 1006.367249,1891.257935 1007.473999,1891.153809 
	C1013.879150,1892.184692 1020.106689,1891.177490 1026.647461,1891.221558 
z"/>
<path fill="#000000" opacity="1.000000" stroke="none" 
	d="
M1073.763184,1897.819336 
	C1071.408325,1894.641724 1076.060303,1895.760376 1076.149658,1893.459961 
	C1078.107300,1892.839844 1075.992188,1890.015137 1078.556763,1890.017334 
	C1078.914185,1890.546997 1078.857056,1891.040771 1078.920654,1891.518311 
	C1079.414917,1895.229370 1079.115845,1898.304443 1073.763184,1897.819336 
z"/>
<path fill="#C2C6DA" opacity="1.000000" stroke="none" 
	d="
M1042.579712,1891.252197 
	C1043.452637,1890.985474 1044.021362,1890.913086 1045.017334,1890.765015 
	C1046.518677,1892.027588 1045.052002,1891.916382 1044.346924,1892.536133 
	C1044.280273,1893.027588 1044.374512,1893.313965 1044.228760,1893.983643 
	C1043.988892,1894.366943 1043.730469,1894.434692 1043.599365,1894.409302 
	C1043.188965,1894.486816 1042.909668,1894.589600 1042.279541,1894.416504 
	C1039.417358,1893.755127 1036.827759,1894.614624 1034.435425,1892.957031 
	C1036.973267,1890.712402 1039.709351,1891.899902 1042.579712,1891.252197 
z"/>
<path fill="#B7B7C7" opacity="1.000000" stroke="none" 
	d="
M1041.733154,1894.446777 
	C1042.187134,1894.166382 1042.445679,1894.192261 1043.086182,1894.301025 
	C1041.922485,1898.697266 1039.032715,1896.625732 1035.768799,1896.293091 
	C1037.908447,1894.499756 1039.926147,1895.559204 1041.733154,1894.446777 
z"/>
<path fill="#C2C6DA" opacity="1.000000" stroke="none" 
	d="
M1028.011475,1893.151611 
	C1027.666626,1892.621216 1027.799927,1892.155518 1027.971924,1891.324951 
	C1028.834717,1890.658447 1029.658813,1890.356934 1030.814697,1890.051514 
	C1031.890991,1891.146484 1033.678467,1890.786133 1034.155029,1892.540161 
	C1034.125732,1892.861572 1034.106445,1892.881714 1034.117432,1892.870850 
	C1032.248901,1892.978638 1030.369385,1893.097412 1028.011475,1893.151611 
z"/>
<path fill="#C2C6DA" opacity="1.000000" stroke="none" 
	d="
M987.048096,1898.017700 
	C986.201660,1897.900513 985.252563,1898.197754 985.518921,1897.188232 
	C985.738098,1896.357666 986.446899,1895.783936 987.286560,1896.131592 
	C988.250610,1896.530762 988.073853,1897.287842 987.048096,1898.017700 
z"/>
<path fill="#B7B7C7" opacity="1.000000" stroke="none" 
	d="
M1035.429688,1898.051758 
	C1036.180542,1899.236328 1035.196411,1898.838745 1034.787109,1898.888672 
	C1034.559082,1898.916504 1034.294189,1898.642700 1034.045898,1898.504883 
	C1034.434082,1898.336670 1034.822266,1898.168213 1035.429688,1898.051758 
z"/>
<path fill="#B7B7C7" opacity="1.000000" stroke="none" 
	d="
M1044.189941,1894.487549 
	C1044.018555,1894.095947 1044.048340,1893.824829 1044.132080,1893.147461 
	C1044.629517,1893.208252 1045.329468,1893.618530 1045.448486,1894.157227 
	C1045.582886,1894.765869 1044.882446,1894.733887 1044.189941,1894.487549 
z"/>
<path fill="#A98D85" opacity="1.000000" stroke="none" 
	d="
M1051.414062,1882.982422 
	C1046.158936,1883.161987 1041.371094,1883.234741 1036.297852,1882.758789 
	C1034.831299,1882.736816 1033.670166,1882.547485 1032.198975,1882.191162 
	C1031.289795,1880.572021 1032.171753,1879.756958 1033.506958,1878.822998 
	C1035.625854,1878.615723 1037.427734,1878.586182 1039.675903,1878.493530 
	C1040.122070,1878.430420 1040.507080,1878.596802 1040.705078,1878.527832 
	C1043.300537,1878.591187 1045.697998,1878.723267 1048.545898,1878.858398 
	C1049.161133,1878.773193 1049.325684,1878.685059 1049.745361,1878.712646 
	C1050.421997,1878.812134 1050.843384,1878.795776 1051.578125,1878.824951 
	C1053.026733,1880.240723 1053.292236,1881.608154 1051.414062,1882.982422 
z"/>
<path fill="#5F606A" opacity="1.000000" stroke="none" 
	d="
M994.539551,1880.599609 
	C994.213684,1885.475708 992.491211,1887.087158 987.630676,1885.340698 
	C984.083313,1884.066040 983.734802,1882.483765 984.979614,1879.187500 
	C985.426392,1878.838867 985.880066,1878.880859 986.671875,1878.875000 
	C987.169373,1878.750488 987.328674,1878.673828 987.737427,1878.686890 
	C990.046204,1879.669189 992.839844,1877.331665 994.539551,1880.599609 
z"/>
<path fill="#5F606A" opacity="1.000000" stroke="none" 
	d="
M1051.072998,1883.393066 
	C1052.012329,1882.081177 1051.920410,1880.835449 1051.906494,1879.243652 
	C1054.577271,1878.918945 1057.263306,1878.967407 1060.387451,1879.058594 
	C1061.476196,1880.859619 1063.515259,1883.565674 1061.614868,1884.301880 
	C1058.417969,1885.540405 1054.500244,1886.835693 1051.072998,1883.393066 
z"/>
<path fill="#B7B7C7" opacity="1.000000" stroke="none" 
	d="
M1033.534912,1878.475098 
	C1033.996704,1879.950684 1033.261719,1880.778687 1032.105957,1881.761963 
	C1031.231934,1882.016846 1030.568237,1882.067749 1029.919678,1881.990234 
	C1028.378418,1881.806396 1025.991577,1882.414429 1025.860474,1880.321411 
	C1025.735352,1878.324951 1028.208130,1879.317505 1029.431763,1878.735352 
	C1030.613037,1878.173706 1031.903809,1877.807617 1033.534912,1878.475098 
z"/>
<path fill="#B7B7C7" opacity="1.000000" stroke="none" 
	d="
M1040.812500,1878.405029 
	C1040.903198,1878.458984 1040.507812,1878.532471 1040.314941,1878.481445 
	C1040.310547,1878.308594 1040.510376,1878.282104 1040.812500,1878.405029 
z"/>
<path fill="#B7B7C7" opacity="1.000000" stroke="none" 
	d="
M1049.888794,1878.727661 
	C1049.834106,1878.862671 1049.667603,1878.896851 1049.248901,1878.896240 
	C1049.204956,1878.584351 1049.465210,1878.506226 1049.888794,1878.727661 
z"/>
<path fill="#B7B7C7" opacity="1.000000" stroke="none" 
	d="
M987.877319,1878.676270 
	C987.826111,1878.821533 987.665161,1878.866577 987.257141,1878.869507 
	C987.202393,1878.543823 987.454895,1878.460083 987.877319,1878.676270 
z"/>
<path fill="#9E9DAD" opacity="1.000000" stroke="none" 
	d="
M987.814575,1745.697021 
	C987.077209,1746.770752 986.384583,1746.675537 985.818054,1745.933716 
	C985.387512,1745.370117 985.451660,1744.681030 986.159302,1744.410767 
	C987.020813,1744.081665 987.663513,1744.450928 987.814575,1745.697021 
z"/>
<path fill="#A4B4D0" opacity="1.000000" stroke="none" 
	d="
M981.005920,1740.326172 
	C981.049744,1740.852051 980.965881,1740.926025 981.005920,1740.326172 
z"/>
<path fill="#C2C6DA" opacity="1.000000" stroke="none" 
	d="
M1001.305298,1904.786621 
	C1017.730774,1904.439331 1034.353882,1904.396362 1051.435181,1904.411377 
	C1051.223755,1905.946899 1049.895752,1906.065796 1048.535889,1906.061646 
	C1033.603149,1906.016479 1018.670410,1905.974243 1003.738037,1905.876465 
	C1002.991333,1905.871582 1002.247925,1905.364380 1001.305298,1904.786621 
z"/>
<path fill="#C2C6DA" opacity="1.000000" stroke="none" 
	d="
M1026.519775,1890.982666 
	C1020.769592,1892.579956 1014.495911,1892.577026 1007.942688,1891.362549 
	C1013.814514,1891.033203 1019.933594,1891.001953 1026.519775,1890.982666 
z"/>
<path fill="#000000" opacity="1.000000" stroke="none" 
	d="
M1034.521973,1892.870361 
	C1033.927246,1891.003052 1031.101929,1892.915527 1031.128174,1890.404175 
	C1034.848999,1889.520874 1038.272949,1891.971313 1042.447388,1891.061157 
	C1040.549316,1893.067749 1037.226440,1890.754517 1034.521973,1892.870361 
z"/>
<path fill="#C2C6DA" opacity="1.000000" stroke="none" 
	d="
M974.141174,1890.620605 
	C975.487122,1893.819824 973.259827,1893.048462 971.938721,1893.081543 
	C968.040649,1893.179443 972.265930,1890.595093 970.861450,1889.452148 
	C972.086548,1888.945435 973.294128,1888.948608 974.141174,1890.620605 
z"/>
<path fill="#A4B4D0" opacity="1.000000" stroke="none" 
	d="
M1013.413330,1745.158691 
	C1010.507812,1744.832642 1011.020508,1743.039917 1011.658264,1741.288452 
	C1011.898621,1740.628662 1012.683167,1740.212646 1013.267700,1740.565918 
	C1015.306396,1741.798096 1013.722107,1743.454468 1013.413330,1745.158691 
z"/>
</svg>
